<?xml version="1.0" standalone="no"?><!DOCTYPE svg PUBLIC "-//W3C//DTD SVG 1.1//EN" "http://www.w3.org/Graphics/SVG/1.1/DTD/svg11.dtd"><svg t="1733201089268" class="icon" viewBox="0 0 1407 1024" version="1.1" xmlns="http://www.w3.org/2000/svg" p-id="1764" xmlns:xlink="http://www.w3.org/1999/xlink" width="274.8046875" height="200"><path d="M212.39260332 833.93109424c-11.20440058 0-22.40880117-5.21134893-29.44412226-15.1129125-30.48639258-42.60277969-31.91951338-69.83207842-31.91951426-118.42790977 0-43.77533291 12.2466709-86.89924688 35.30689101-124.81181191 22.14823359-36.21887666 53.93746406-67.2264044 91.98031289-89.37463798 17.19745224-10.03184737 39.34568584-4.16907949 49.37753321 13.02837274 10.03184737 17.19745224 4.16907949 39.34568584-13.02837276 49.37753321-57.32484083 33.48291797-91.58946152 90.15634072-91.58946152 151.78054394 0 41.82107695 0.65141894 51.59235674 18.37000547 76.47654902 11.59525195 16.28546573 7.81702383 38.82455156-8.33815898 50.41980352-6.12333545 4.42964708-13.41922412 6.6444706-20.7151128 6.64446973z" fill="#2e9571" p-id="1765"></path><path d="M179.82167099 962c-10.03184737 0-19.67284336-4.16907949-26.57788066-11.59525195-8.33815898-8.98957705-11.46496817-21.49681553-8.46844189-33.35263418l32.57093232-128.06890577c4.95078135-19.28199199 24.62362471-31.00752773 43.90561671-26.05674638 19.28199199 4.95078135 31.00752773 24.62362471 26.0567455 43.9056167l-18.89114063 74.13144169 96.67052667-16.54603329c6.38390303-1.04226943 13.02837276-0.39085136 19.1517082 1.95425595 24.75390849 9.64099599 51.07122158 14.46149356 78.1702374 14.46149444 58.75796162 0 114.25883028-23.32078769 152.17139531-64.09959522 13.54950791-14.59177734 36.47944424-15.37348008 51.07122159-1.82397217 14.59177734 13.54950791 15.37348008 36.47944424 1.82397216 51.07122159-51.59235674 55.37058487-126.37521739 87.02953067-205.06658906 87.02953154-32.57093232 0-64.4904457-5.34163271-94.7162707-15.76433144l-142.00926504 24.23277333c-1.82397217 0.39085136-3.90851191 0.52113516-5.86276788 0.52113516zM1110.69891494 825.85350283c-2.08453974 0-4.0387957-0.13028379-6.12333544-0.52113428l-227.47539024-38.82455156c-46.64157539 16.80660088-95.75854102 25.27504365-146.30862832 25.27504366-107.48407675 0-208.58425049-38.56398398-284.80023105-108.78691377-37.39142988-34.3949045-66.70526924-74.52229307-87.29009913-119.2096125-21.36653174-46.5112916-32.18008096-96.01910859-32.18008095-146.96004639 0-50.94093779 10.81354922-100.44875479 32.18008095-146.96004639 20.58482901-44.68731943 49.89866836-84.81470801 87.29009913-119.20961162C522.07702754 100.56398398 623.30748506 62 730.79156094 62S939.37581143 100.56398398 1015.59179287 170.78691377c37.39142988 34.3949045 66.70526924 74.52229307 87.29009825 119.20961162 21.36653174 46.5112916 32.18008096 96.01910859 32.18008095 146.96004638 0 67.87782246-1.69368838 105.66010459-36.47944424 159.33700109l47.03242676 184.61204384c2.99652539 11.85581953-0.13028379 24.36305713-8.46844277 33.35263418-6.77475352 7.42617247-16.5460333 11.59525195-26.44759688 11.59525195z" fill="#2e9571" p-id="1766"></path></svg>